<svg width="32" height="32" viewBox="0 0 32 32" fill="none" xmlns="http://www.w3.org/2000/svg">
<rect width="32" height="32" rx="16" fill="white"/>
<path d="M5.0203 27L9.6403 3.9H20.7943C23.3023 3.9 25.2163 4.351 26.5363 5.253C27.8783 6.155 28.5493 7.464 28.5493 9.18C28.5493 10.632 28.1643 11.853 27.3943 12.843C26.6463 13.833 25.6453 14.581 24.3913 15.087C23.1373 15.593 21.7733 15.846 20.2993 15.846L21.1573 14.526C23.0933 14.526 24.6333 14.977 25.7773 15.879C26.9433 16.759 27.5263 18.035 27.5263 19.707C27.5263 21.335 27.0753 22.699 26.1733 23.799C25.2933 24.877 24.0723 25.68 22.5103 26.208C20.9483 26.736 19.1553 27 17.1313 27H5.0203ZM11.1583 22.974H17.4613C18.9353 22.974 20.0903 22.699 20.9263 22.149C21.7843 21.577 22.2133 20.741 22.2133 19.641C22.2133 18.783 21.8943 18.178 21.2563 17.826C20.6403 17.452 19.8043 17.265 18.7483 17.265H11.6863L12.4783 13.371H18.4843C19.4083 13.371 20.2003 13.25 20.8603 13.008C21.5423 12.766 22.0593 12.403 22.4113 11.919C22.7633 11.413 22.9393 10.808 22.9393 10.104C22.9393 9.334 22.6423 8.784 22.0483 8.454C21.4543 8.102 20.6183 7.926 19.5403 7.926H14.1283L11.1583 22.974Z" fill="#311878"/>
<path d="M10.4854 14.612H21.2934L21.1254 15.48H10.3174L10.4854 14.612ZM8.74938 24.132H21.0694L20.8734 25H7.62938L11.5494 5.4H24.3734L24.2054 6.268H12.3054L8.74938 24.132Z" fill="#FEFEFE"/>
</svg>
